<svg width="25" height="48" viewBox="0 0 25 48" fill="none" xmlns="http://www.w3.org/2000/svg">
<path fill-rule="evenodd" clip-rule="evenodd" d="M6.09963 2.40002C4.11141 2.40002 2.49963 4.0118 2.49963 6.00002V15C2.49963 16.9882 4.11141 18.6 6.09963 18.6H8.85111L11.4683 21.2172C12.0931 21.842 13.1062 21.842 13.731 21.2172L16.3482 18.6H19.0996C21.0879 18.6 22.6996 16.9882 22.6996 15V6.00002C22.6996 4.0118 21.0879 2.40002 19.0996 2.40002H6.09963ZM16.0996 17.4H19.0996C20.4251 17.4 21.4996 16.3255 21.4996 15V6.00002C21.4996 4.67454 20.4251 3.60002 19.0996 3.60002H6.09963C4.77415 3.60002 3.69963 4.67454 3.69963 6.00002V15C3.69963 16.3255 4.77415 17.4 6.09963 17.4H9.09963C9.25319 17.4 9.40674 17.4586 9.5239 17.5758L12.3168 20.3687C12.473 20.5249 12.7263 20.5249 12.8825 20.3687L15.6754 17.5758C15.7925 17.4586 15.9461 17.4 16.0996 17.4Z" fill="#717171"/>
<path fill-rule="evenodd" clip-rule="evenodd" d="M6.09963 26.4C4.11141 26.4 2.49963 28.0118 2.49963 30V39C2.49963 40.9882 4.11141 42.6 6.09963 42.6H8.85111L11.4683 45.2172C12.0931 45.842 13.1062 45.842 13.731 45.2172L16.3482 42.6H19.0996C21.0879 42.6 22.6996 40.9882 22.6996 39V30C22.6996 28.0118 21.0879 26.4 19.0996 26.4H6.09963ZM16.0996 41.4H19.0996C20.4251 41.4 21.4996 40.3255 21.4996 39V30C21.4996 28.6745 20.4251 27.6 19.0996 27.6H6.09963C4.77415 27.6 3.69963 28.6745 3.69963 30V39C3.69963 40.3255 4.77415 41.4 6.09963 41.4H9.09963C9.25319 41.4 9.40674 41.4586 9.5239 41.5758L12.3168 44.3687C12.473 44.5249 12.7263 44.5249 12.8825 44.3687L15.6754 41.5758C15.7925 41.4586 15.9461 41.4 16.0996 41.4Z" fill="#D3385A"/>
</svg>
