<svg width="24" height="48" viewBox="0 0 24 48" fill="none" xmlns="http://www.w3.org/2000/svg">
<path fill-rule="evenodd" clip-rule="evenodd" d="M11.9997 20.1444L11.3911 19.7863C7.09286 17.2567 4.63777 14.7399 3.41989 12.5219C2.12195 10.1582 2.22507 8.14071 2.96272 6.69354C4.48246 3.712 8.78026 2.8061 11.3721 6.08419L11.9996 6.87783L12.6272 6.08423C15.2195 2.80601 19.5175 3.71209 21.0372 6.69354C21.7749 8.14069 21.8779 10.1582 20.5799 12.5219C19.3619 14.7399 16.9067 17.2567 12.6083 19.7863L11.9997 20.1444ZM11.9996 8.81255L10.4308 6.82846C8.41309 4.27652 5.17779 4.9903 4.03184 7.23849C3.49793 8.28596 3.33892 9.8813 4.47174 11.9444C5.55151 13.9108 7.81509 16.2894 11.9997 18.7521C16.1845 16.2894 18.4482 13.9108 19.5281 11.9443C20.661 9.88124 20.502 8.28592 19.9681 7.23849C18.8222 4.99042 15.5866 4.27636 13.5684 6.82856L11.9996 8.81255Z" fill="#717171"/>
<path fill-rule="evenodd" clip-rule="evenodd" d="M11.9997 44.1444L11.3911 43.7863C7.09286 41.2567 4.63777 38.7399 3.41989 36.5219C2.12195 34.1582 2.22507 32.1407 2.96272 30.6935C4.48246 27.712 8.78026 26.8061 11.3721 30.0842L11.9996 30.8778L12.6272 30.0842C15.2195 26.806 19.5175 27.7121 21.0372 30.6935C21.7749 32.1407 21.8779 34.1582 20.5799 36.5219C19.3619 38.7399 16.9067 41.2567 12.6083 43.7863L11.9997 44.1444ZM11.9996 32.8126L10.4308 30.8285C8.41309 28.2765 5.17779 28.9903 4.03184 31.2385C3.49793 32.286 3.33892 33.8813 4.47174 35.9444C5.55151 37.9108 7.81509 40.2894 11.9997 42.7521C16.1845 40.2894 18.4482 37.9108 19.5281 35.9443C20.661 33.8812 20.502 32.2859 19.9681 31.2385C18.8222 28.9904 15.5866 28.2764 13.5684 30.8286L11.9996 32.8126Z" fill="#9C89B3"/>
</svg>
