<svg width="24" height="48" viewBox="0 0 24 48" fill="none" xmlns="http://www.w3.org/2000/svg">
<path fill-rule="evenodd" clip-rule="evenodd" d="M2.89971 12.1C2.89971 7.18467 6.88437 3.2 11.7997 3.2C16.715 3.2 20.6997 7.18467 20.6997 12.1C20.6997 13.9277 20.1488 15.6268 19.2039 17.0402C17.5827 15.7137 15.599 14.8138 13.424 14.5117C15.2194 13.8506 16.4999 12.1248 16.4999 10.0999C16.4999 7.50416 14.3956 5.3999 11.7999 5.3999C9.20411 5.3999 7.09985 7.50416 7.09985 10.0999C7.09985 12.1248 8.38033 13.8506 10.1757 14.5117C8.00067 14.8138 6.01687 15.7138 4.39566 17.0403C3.4507 15.6269 2.89971 13.9278 2.89971 12.1ZM5.12853 17.9913C6.75923 19.8365 9.14359 21 11.7997 21C14.4559 21 16.8403 19.8364 18.471 17.9911C16.6571 16.4971 14.3333 15.5999 11.7999 15.5999C9.26636 15.5999 6.94243 16.4972 5.12853 17.9913ZM11.7997 2C6.22163 2 1.69971 6.52192 1.69971 12.1C1.69971 17.6781 6.22163 22.2 11.7997 22.2C17.3778 22.2 21.8997 17.6781 21.8997 12.1C21.8997 6.52192 17.3778 2 11.7997 2ZM15.2998 10.1001C15.2998 12.0331 13.7328 13.6001 11.7998 13.6001C9.86681 13.6001 8.2998 12.0331 8.2998 10.1001C8.2998 8.1671 9.86681 6.6001 11.7998 6.6001C13.7328 6.6001 15.2998 8.1671 15.2998 10.1001Z" fill="#717171"/>
<path fill-rule="evenodd" clip-rule="evenodd" d="M2.89971 36.1C2.89971 31.1847 6.88437 27.2 11.7997 27.2C16.715 27.2 20.6997 31.1847 20.6997 36.1C20.6997 37.9277 20.1488 39.6268 19.2039 41.0402C17.5827 39.7137 15.599 38.8138 13.424 38.5117C15.2194 37.8506 16.4999 36.1248 16.4999 34.0999C16.4999 31.5042 14.3956 29.3999 11.7999 29.3999C9.20411 29.3999 7.09985 31.5042 7.09985 34.0999C7.09985 36.1248 8.38033 37.8506 10.1757 38.5117C8.00067 38.8138 6.01687 39.7138 4.39566 41.0403C3.4507 39.6269 2.89971 37.9278 2.89971 36.1ZM5.12853 41.9913C6.75923 43.8365 9.14359 45 11.7997 45C14.4559 45 16.8403 43.8364 18.471 41.9911C16.6571 40.4971 14.3333 39.5999 11.7999 39.5999C9.26636 39.5999 6.94243 40.4972 5.12853 41.9913ZM11.7997 26C6.22163 26 1.69971 30.5219 1.69971 36.1C1.69971 41.6781 6.22163 46.2 11.7997 46.2C17.3778 46.2 21.8997 41.6781 21.8997 36.1C21.8997 30.5219 17.3778 26 11.7997 26ZM15.2998 34.1001C15.2998 36.0331 13.7328 37.6001 11.7998 37.6001C9.86681 37.6001 8.2998 36.0331 8.2998 34.1001C8.2998 32.1671 9.86681 30.6001 11.7998 30.6001C13.7328 30.6001 15.2998 32.1671 15.2998 34.1001Z" fill="#9C89B3"/>
</svg>
