<svg width="20" height="44" viewBox="0 0 20 44" fill="none" xmlns="http://www.w3.org/2000/svg">
<path fill-rule="evenodd" clip-rule="evenodd" d="M14.3157 13.6626C15.6119 12.2123 16.4 10.2982 16.4 8.2C16.4 3.67127 12.7287 0 8.2 0C3.67127 0 0 3.67127 0 8.2C0 12.7287 3.67127 16.4 8.2 16.4C10.2228 16.4 12.0746 15.6676 13.5045 14.4534C13.5333 14.5153 13.5732 14.5732 13.6243 14.6243L18.7757 19.7757C19.01 20.01 19.3899 20.01 19.6243 19.7757C19.8586 19.5414 19.8586 19.1615 19.6243 18.9272L14.4728 13.7757C14.4255 13.7285 14.3724 13.6908 14.3157 13.6626ZM15.2 8.2C15.2 12.066 12.066 15.2 8.2 15.2C4.33401 15.2 1.2 12.066 1.2 8.2C1.2 4.33401 4.33401 1.2 8.2 1.2C12.066 1.2 15.2 4.33401 15.2 8.2Z" fill="#717171"/>
<path fill-rule="evenodd" clip-rule="evenodd" d="M14.3157 37.6626C15.6119 36.2123 16.4 34.2982 16.4 32.2C16.4 27.6713 12.7287 24 8.2 24C3.67127 24 0 27.6713 0 32.2C0 36.7287 3.67127 40.4 8.2 40.4C10.2228 40.4 12.0746 39.6676 13.5045 38.4534C13.5333 38.5153 13.5732 38.5732 13.6243 38.6243L18.7757 43.7757C19.01 44.01 19.3899 44.01 19.6243 43.7757C19.8586 43.5414 19.8586 43.1615 19.6243 42.9272L14.4728 37.7757C14.4255 37.7285 14.3724 37.6908 14.3157 37.6626ZM15.2 32.2C15.2 36.066 12.066 39.2 8.2 39.2C4.33401 39.2 1.2 36.066 1.2 32.2C1.2 28.334 4.33401 25.2 8.2 25.2C12.066 25.2 15.2 28.334 15.2 32.2Z" fill="#D3385A"/>
</svg>
