<svg width="24" height="48" viewBox="0 0 24 48" fill="none" xmlns="http://www.w3.org/2000/svg">
<path fill-rule="evenodd" clip-rule="evenodd" d="M16.3157 16.6626C17.6119 15.2123 18.4 13.2982 18.4 11.2C18.4 6.67127 14.7287 3 10.2 3C5.67127 3 2 6.67127 2 11.2C2 15.7287 5.67127 19.4 10.2 19.4C12.2228 19.4 14.0746 18.6676 15.5045 17.4534C15.5333 17.5153 15.5732 17.5732 15.6243 17.6243L20.7757 22.7757C21.01 23.01 21.3899 23.01 21.6243 22.7757C21.8586 22.5414 21.8586 22.1615 21.6243 21.9272L16.4728 16.7757C16.4255 16.7285 16.3724 16.6908 16.3157 16.6626ZM17.2 11.2C17.2 15.066 14.066 18.2 10.2 18.2C6.33401 18.2 3.2 15.066 3.2 11.2C3.2 7.33401 6.33401 4.2 10.2 4.2C14.066 4.2 17.2 7.33401 17.2 11.2Z" fill="#717171"/>
<path fill-rule="evenodd" clip-rule="evenodd" d="M16.3157 40.6626C17.6119 39.2123 18.4 37.2982 18.4 35.2C18.4 30.6713 14.7287 27 10.2 27C5.67127 27 2 30.6713 2 35.2C2 39.7287 5.67127 43.4 10.2 43.4C12.2228 43.4 14.0746 42.6676 15.5045 41.4534C15.5333 41.5153 15.5732 41.5732 15.6243 41.6243L20.7757 46.7757C21.01 47.01 21.3899 47.01 21.6243 46.7757C21.8586 46.5414 21.8586 46.1615 21.6243 45.9272L16.4728 40.7757C16.4255 40.7285 16.3724 40.6908 16.3157 40.6626ZM17.2 35.2C17.2 39.066 14.066 42.2 10.2 42.2C6.33401 42.2 3.2 39.066 3.2 35.2C3.2 31.334 6.33401 28.2 10.2 28.2C14.066 28.2 17.2 31.334 17.2 35.2Z" fill="#9C89B3"/>
</svg>
