<svg width="40" height="80" viewBox="0 0 40 80" fill="none" xmlns="http://www.w3.org/2000/svg">
<circle cx="20" cy="20" r="20" fill="white"/>
<path d="M10.4 11.4H14L16.4 9H23.6L26 11.4H29.6C30.2365 11.4 30.847 11.6529 31.2971 12.1029C31.7471 12.553 32 13.1635 32 13.8V28.2C32 28.8365 31.7471 29.447 31.2971 29.8971C30.847 30.3471 30.2365 30.6 29.6 30.6H10.4C9.76348 30.6 9.15303 30.3471 8.70294 29.8971C8.25286 29.447 8 28.8365 8 28.2V13.8C8 13.1635 8.25286 12.553 8.70294 12.1029C9.15303 11.6529 9.76348 11.4 10.4 11.4ZM20 15C18.4087 15 16.8826 15.6321 15.7574 16.7574C14.6321 17.8826 14 19.4087 14 21C14 22.5913 14.6321 24.1174 15.7574 25.2426C16.8826 26.3679 18.4087 27 20 27C21.5913 27 23.1174 26.3679 24.2426 25.2426C25.3679 24.1174 26 22.5913 26 21C26 19.4087 25.3679 17.8826 24.2426 16.7574C23.1174 15.6321 21.5913 15 20 15ZM20 17.4C20.9548 17.4 21.8705 17.7793 22.5456 18.4544C23.2207 19.1295 23.6 20.0452 23.6 21C23.6 21.9548 23.2207 22.8705 22.5456 23.5456C21.8705 24.2207 20.9548 24.6 20 24.6C19.0452 24.6 18.1295 24.2207 17.4544 23.5456C16.7793 22.8705 16.4 21.9548 16.4 21C16.4 20.0452 16.7793 19.1295 17.4544 18.4544C18.1295 17.7793 19.0452 17.4 20 17.4Z" fill="black"/>
<circle cx="20" cy="60" r="20" fill="#484848"/>
<path d="M10.4 51.4H14L16.4 49H23.6L26 51.4H29.6C30.2365 51.4 30.847 51.6529 31.2971 52.1029C31.7471 52.553 32 53.1635 32 53.8V68.2C32 68.8365 31.7471 69.447 31.2971 69.8971C30.847 70.3471 30.2365 70.6 29.6 70.6H10.4C9.76348 70.6 9.15303 70.3471 8.70294 69.8971C8.25286 69.447 8 68.8365 8 68.2V53.8C8 53.1635 8.25286 52.553 8.70294 52.1029C9.15303 51.6529 9.76348 51.4 10.4 51.4ZM20 55C18.4087 55 16.8826 55.6321 15.7574 56.7574C14.6321 57.8826 14 59.4087 14 61C14 62.5913 14.6321 64.1174 15.7574 65.2426C16.8826 66.3679 18.4087 67 20 67C21.5913 67 23.1174 66.3679 24.2426 65.2426C25.3679 64.1174 26 62.5913 26 61C26 59.4087 25.3679 57.8826 24.2426 56.7574C23.1174 55.6321 21.5913 55 20 55ZM20 57.4C20.9548 57.4 21.8705 57.7793 22.5456 58.4544C23.2207 59.1295 23.6 60.0452 23.6 61C23.6 61.9548 23.2207 62.8705 22.5456 63.5456C21.8705 64.2207 20.9548 64.6 20 64.6C19.0452 64.6 18.1295 64.2207 17.4544 63.5456C16.7793 62.8705 16.4 61.9548 16.4 61C16.4 60.0452 16.7793 59.1295 17.4544 58.4544C18.1295 57.7793 19.0452 57.4 20 57.4Z" fill="#979797"/>
<line x1="9.16177" y1="48.2474" x2="32.2527" y2="71.3383" stroke="#D33838" stroke-width="2" stroke-linecap="round"/>
</svg>
