<svg width="40" height="40" viewBox="0 0 40 40" fill="none" xmlns="http://www.w3.org/2000/svg">
<circle cx="20" cy="20" r="20" fill="#D3385A"/>
<path d="M21.8799 20L27.6132 14.28C27.8643 14.0289 28.0054 13.6884 28.0054 13.3333C28.0054 12.9782 27.8643 12.6377 27.6132 12.3866C27.3622 12.1356 27.0217 11.9945 26.6666 11.9945C26.3115 11.9945 25.971 12.1356 25.7199 12.3866L19.9999 18.12L14.2799 12.3866C14.0288 12.1356 13.6883 11.9945 13.3333 11.9945C12.9782 11.9945 12.6377 12.1356 12.3866 12.3866C12.1355 12.6377 11.9945 12.9782 11.9945 13.3333C11.9945 13.6884 12.1355 14.0289 12.3866 14.28L18.1199 20L12.3866 25.72C12.2616 25.8439 12.1624 25.9914 12.0947 26.1539C12.027 26.3163 11.9922 26.4906 11.9922 26.6666C11.9922 26.8426 12.027 27.0169 12.0947 27.1794C12.1624 27.3419 12.2616 27.4893 12.3866 27.6133C12.5105 27.7383 12.658 27.8375 12.8205 27.9052C12.983 27.9728 13.1572 28.0077 13.3333 28.0077C13.5093 28.0077 13.6835 27.9728 13.846 27.9052C14.0085 27.8375 14.156 27.7383 14.2799 27.6133L19.9999 21.88L25.7199 27.6133C25.8439 27.7383 25.9913 27.8375 26.1538 27.9052C26.3163 27.9728 26.4906 28.0077 26.6666 28.0077C26.8426 28.0077 27.0169 27.9728 27.1794 27.9052C27.3418 27.8375 27.4893 27.7383 27.6132 27.6133C27.7382 27.4893 27.8374 27.3419 27.9051 27.1794C27.9728 27.0169 28.0076 26.8426 28.0076 26.6666C28.0076 26.4906 27.9728 26.3163 27.9051 26.1539C27.8374 25.9914 27.7382 25.8439 27.6132 25.72L21.8799 20Z" fill="white"/>
</svg>
