<svg width="40" height="40" viewBox="0 0 40 40" fill="none" xmlns="http://www.w3.org/2000/svg">
<path d="M31.6667 13.3333L25.0001 20H30.0001C30.0001 25.5166 25.5167 30 20.0001 30C18.3334 30 16.7167 29.5833 15.3334 28.8333L12.9001 31.2666C14.9501 32.5666 17.3834 33.3333 20.0001 33.3333C27.3667 33.3333 33.3334 27.3666 33.3334 20H38.3334M10.0001 20C10.0001 14.4833 14.4834 9.99996 20.0001 9.99996C21.6667 9.99996 23.2834 10.4166 24.6667 11.1666L27.1001 8.73329C25.0501 7.43329 22.6167 6.66663 20.0001 6.66663C12.6334 6.66663 6.66675 12.6333 6.66675 20H1.66675L8.33342 26.6666L15.0001 20" fill="white"/>
</svg>
