<svg width="40" height="80" viewBox="0 0 40 80" fill="none" xmlns="http://www.w3.org/2000/svg">
<path d="M19.9995 78.3975C-18.5431 57.0943 8.43722 33.9683 19.9995 48.5918C31.5632 33.9683 58.5435 57.0943 19.9995 78.3975Z" fill="url(#paint0_linear_607_2720)"/>
<path d="M18.8228 9.52208L19.9994 11.0102L21.176 9.52216C26.2214 3.14181 34.534 4.97575 37.4535 10.7033C38.8839 13.5097 39.0767 17.4127 36.5716 21.9746C34.111 26.4554 29.0365 31.5674 19.9995 36.6789C10.9628 31.5674 5.88859 26.4554 3.42821 21.9747C0.923257 17.4127 1.11611 13.5097 2.54657 10.7033C5.46607 4.97566 13.7783 3.14193 18.8228 9.52208Z" stroke="white" stroke-width="3"/>
<defs>
<linearGradient id="paint0_linear_607_2720" x1="40" y1="44" x2="-3.80488" y2="49.8354" gradientUnits="userSpaceOnUse">
<stop stop-color="#D03660"/>
<stop offset="1" stop-color="#D73B54"/>
</linearGradient>
</defs>
</svg>
