<svg width="40" height="80" viewBox="0 0 40 80" fill="none" xmlns="http://www.w3.org/2000/svg">
<path d="M18.8227 50.2437L19.9993 51.7318L21.1759 50.2438C25.4398 44.8518 32.4499 46.3984 34.9134 51.2316C36.1159 53.5907 36.2925 56.8948 34.1537 60.7896C32.059 64.6041 27.7326 68.9803 19.9994 73.3709C12.2664 68.9803 7.94035 64.6042 5.84581 60.7897C3.70718 56.8949 3.88375 53.5908 5.08626 51.2316C7.54989 46.3983 14.5596 44.8519 18.8227 50.2437Z" fill="url(#paint0_linear_606_2708)" stroke="white" stroke-width="3"/>
<path fill-rule="evenodd" clip-rule="evenodd" d="M17.5703 7.01546C18.4347 7.60951 19.2541 8.37076 19.9994 9.31336C20.7447 8.37082 21.5641 7.60961 22.4286 7.01557C33.1633 -0.36102 50.849 18.0397 19.9994 35.0902C-10.8489 18.0398 6.83659 -0.36083 17.5703 7.01546ZM19.9994 31.2534C26.9741 27.149 30.7469 23.1846 32.5467 19.9072C34.4349 16.4687 34.1699 13.8099 33.2801 12.0641C31.3703 8.31737 25.9777 7.12726 22.614 11.3809L19.9992 14.6876L17.3846 11.3808C14.0217 7.12753 8.62957 8.31716 6.71965 12.0641C5.8298 13.8099 5.56478 16.4688 7.45282 19.9073C9.25243 23.1847 13.0251 27.149 19.9994 31.2534Z" fill="white"/>
<defs>
<linearGradient id="paint0_linear_606_2708" x1="37.2964" y1="45.3423" x2="-0.587288" y2="50.3889" gradientUnits="userSpaceOnUse">
<stop stop-color="#D03660"/>
<stop offset="1" stop-color="#D73B54"/>
</linearGradient>
</defs>
</svg>
