<svg width="40" height="80" viewBox="0 0 40 80" fill="none" xmlns="http://www.w3.org/2000/svg">
<circle cx="20" cy="20" r="20" fill="white"/>
<path d="M19.8421 8C20.8471 8 21.811 8.39925 22.5217 9.10991C23.2323 9.82058 23.6316 10.7844 23.6316 11.7895V19.3684C23.6316 20.3735 23.2323 21.3373 22.5217 22.048C21.811 22.7586 20.8471 23.1579 19.8421 23.1579C18.8371 23.1579 17.8732 22.7586 17.1625 22.048C16.4519 21.3373 16.0526 20.3735 16.0526 19.3684V11.7895C16.0526 10.7844 16.4519 9.82058 17.1625 9.10991C17.8732 8.39925 18.8371 8 19.8421 8ZM28.6842 19.3684C28.6842 23.8274 25.3874 27.5032 21.1053 28.1221V32H18.5789V28.1221C14.2968 27.5032 11 23.8274 11 19.3684H13.5263C13.5263 21.0435 14.1917 22.6499 15.3762 23.8344C16.5606 25.0188 18.1671 25.6842 19.8421 25.6842C21.5172 25.6842 23.1236 25.0188 24.308 23.8344C25.4925 22.6499 26.1579 21.0435 26.1579 19.3684H28.6842Z" fill="black"/>
<circle cx="20" cy="60" r="20" fill="#484848"/>
<path d="M19.8421 48C20.8471 48 21.811 48.3992 22.5217 49.1099C23.2323 49.8206 23.6316 50.7844 23.6316 51.7895V59.3684C23.6316 60.3735 23.2323 61.3373 22.5217 62.048C21.811 62.7586 20.8471 63.1579 19.8421 63.1579C18.8371 63.1579 17.8732 62.7586 17.1625 62.048C16.4519 61.3373 16.0526 60.3735 16.0526 59.3684V51.7895C16.0526 50.7844 16.4519 49.8206 17.1625 49.1099C17.8732 48.3992 18.8371 48 19.8421 48ZM28.6842 59.3684C28.6842 63.8274 25.3874 67.5032 21.1053 68.1221V72H18.5789V68.1221C14.2968 67.5032 11 63.8274 11 59.3684H13.5263C13.5263 61.0435 14.1917 62.6499 15.3762 63.8344C16.5606 65.0188 18.1671 65.6842 19.8421 65.6842C21.5172 65.6842 23.1236 65.0188 24.308 63.8344C25.4925 62.6499 26.1579 61.0435 26.1579 59.3684H28.6842Z" fill="#979797"/>
<line x1="9.16177" y1="48.2474" x2="32.2527" y2="71.3383" stroke="#D33838" stroke-width="2" stroke-linecap="round"/>
</svg>
