<svg width="40" height="80" viewBox="0 0 40 80" fill="none" xmlns="http://www.w3.org/2000/svg">
<circle cx="20" cy="20" r="20" fill="white"/>
<path d="M22.6667 8V10.7467C26.52 11.8933 29.3333 15.4667 29.3333 19.6933C29.3333 23.92 26.52 27.48 22.6667 28.6267V31.3867C28 30.1733 32 25.4 32 19.6933C32 13.9867 28 9.21333 22.6667 8ZM26 19.6933C26 17.3333 24.6667 15.3067 22.6667 14.32V25.0267C24.6667 24.08 26 22.04 26 19.6933ZM8 15.6933V23.6933H13.3333L20 30.36V9.02667L13.3333 15.6933H8Z" fill="black"/>
<circle cx="20" cy="60" r="20" fill="#484848"/>
<path d="M22.6667 48V50.7467C26.52 51.8933 29.3333 55.4667 29.3333 59.6933C29.3333 63.92 26.52 67.48 22.6667 68.6267V71.3867C28 70.1733 32 65.4 32 59.6933C32 53.9867 28 49.2133 22.6667 48ZM26 59.6933C26 57.3333 24.6667 55.3067 22.6667 54.32V65.0267C24.6667 64.08 26 62.04 26 59.6933ZM8 55.6933V63.6933H13.3333L20 70.36V49.0267L13.3333 55.6933H8Z" fill="#979797"/>
<line x1="9.16177" y1="48.2474" x2="32.2527" y2="71.3383" stroke="#D33838" stroke-width="2" stroke-linecap="round"/>
</svg>
