<svg width="20" height="40" xmlns="http://www.w3.org/2000/svg" fill="none">

 <g>
  <title>Layer 1</title>
  <path id="svg_1" fill="white" d="m10,34c2.2091,0 4,-1.7909 4,-4c0,-2.2091 -1.7909,-4 -4,-4c-2.20914,0 -4,1.7909 -4,4c0,2.2091 1.79086,4 4,4zm0,6c5.5228,0 10,-4.4772 10,-10c0,-5.5228 -4.4772,-10 -10,-10c-5.52285,0 -10,4.4772 -10,10c0,5.5228 4.47715,10 10,10z" clip-rule="evenodd" fill-rule="evenodd"/>
  <path id="svg_2" fill="#979797" d="m10,14c2.2091,0 4,-1.7909 4,-4c0,-2.20914 -1.7909,-4 -4,-4c-2.20914,0 -4,1.79086 -4,4c0,2.2091 1.79086,4 4,4zm0,6c5.5228,0 10,-4.4772 10,-10c0,-5.52285 -4.4772,-10 -10,-10c-5.52285,0 -10,4.47715 -10,10c0,5.5228 4.47715,10 10,10z" clip-rule="evenodd" fill-rule="evenodd"/>
  <ellipse ry="5.38793" rx="4.90302" id="svg_5" cy="10.49569" cx="10.26939" fill="#979797"/>
 </g>
</svg>