<svg width="24" height="24" viewBox="0 0 24 24" fill="none" xmlns="http://www.w3.org/2000/svg">
<path d="M17.4637 16.86L15.197 14.6C15.9283 13.6683 16.3251 12.5178 16.3237 11.3333C16.3237 10.2785 16.0109 9.24736 15.4248 8.37029C14.8388 7.49323 14.0058 6.80965 13.0313 6.40598C12.0568 6.00231 10.9844 5.89669 9.94984 6.10248C8.91527 6.30827 7.96496 6.81622 7.21908 7.5621C6.4732 8.30798 5.96525 9.25829 5.75946 10.2929C5.55368 11.3274 5.65929 12.3998 6.06296 13.3743C6.46663 14.3489 7.15021 15.1818 8.02728 15.7678C8.90434 16.3539 9.93548 16.6667 10.9903 16.6667C12.1748 16.6681 13.3253 16.2713 14.257 15.54L16.517 17.8067C16.579 17.8692 16.6527 17.9188 16.7339 17.9526C16.8152 17.9864 16.9023 18.0039 16.9903 18.0039C17.0783 18.0039 17.1655 17.9864 17.2467 17.9526C17.3279 17.9188 17.4017 17.8692 17.4637 17.8067C17.5261 17.7447 17.5757 17.671 17.6096 17.5897C17.6434 17.5085 17.6609 17.4213 17.6609 17.3333C17.6609 17.2453 17.6434 17.1582 17.6096 17.077C17.5757 16.9957 17.5261 16.922 17.4637 16.86V16.86ZM6.99032 11.3333C6.99032 10.5422 7.22491 9.76885 7.66444 9.11106C8.10397 8.45326 8.72868 7.94057 9.45958 7.63782C10.1905 7.33507 10.9948 7.25585 11.7707 7.41019C12.5466 7.56454 13.2593 7.9455 13.8187 8.50491C14.3782 9.06432 14.7591 9.77705 14.9135 10.553C15.0678 11.3289 14.9886 12.1332 14.6858 12.8641C14.3831 13.595 13.8704 14.2197 13.2126 14.6592C12.5548 15.0987 11.7814 15.3333 10.9903 15.3333C9.92945 15.3333 8.91204 14.9119 8.16189 14.1618C7.41175 13.4116 6.99032 12.3942 6.99032 11.3333Z" fill="#484848"/>
</svg>
