<svg width="16" height="16" viewBox="0 0 16 16" fill="none" xmlns="http://www.w3.org/2000/svg">
<g clip-path="url(#clip0_672_2848)">
<circle cx="8" cy="8" r="8" fill="#D3385A"/>
<path d="M10.1333 10.9334V12H2.66667V10.9334C2.66667 10.9334 2.66667 8.80003 6.4 8.80003C10.1333 8.80003 10.1333 10.9334 10.1333 10.9334ZM8.26667 5.86669C8.26667 5.4975 8.15719 5.1366 7.95208 4.82963C7.74697 4.52266 7.45543 4.2834 7.11434 4.14212C6.77325 4.00084 6.39793 3.96387 6.03583 4.0359C5.67373 4.10792 5.34113 4.2857 5.08007 4.54676C4.81901 4.80782 4.64123 5.14043 4.5692 5.50253C4.49718 5.86462 4.53414 6.23995 4.67543 6.58104C4.81671 6.92213 5.05597 7.21366 5.36294 7.41877C5.66991 7.62388 6.03081 7.73336 6.4 7.73336C6.89507 7.73336 7.36987 7.53669 7.71993 7.18663C8.07 6.83656 8.26667 6.36177 8.26667 5.86669ZM10.1013 8.80003C10.4292 9.05376 10.6975 9.37626 10.8873 9.74483C11.0771 10.1134 11.1838 10.5191 11.2 10.9334V12H13.3333V10.9334C13.3333 10.9334 13.3333 8.99736 10.1013 8.80003ZM9.6 4.00003C9.2329 3.99798 8.87388 4.10774 8.57067 4.31469C8.89464 4.76735 9.06883 5.31005 9.06883 5.86669C9.06883 6.42334 8.89464 6.96603 8.57067 7.41869C8.87388 7.62565 9.2329 7.73541 9.6 7.73336C10.0951 7.73336 10.5699 7.53669 10.9199 7.18663C11.27 6.83656 11.4667 6.36177 11.4667 5.86669C11.4667 5.37162 11.27 4.89683 10.9199 4.54676C10.5699 4.19669 10.0951 4.00003 9.6 4.00003Z" fill="white"/>
</g>
<defs>
<clipPath id="clip0_672_2848">
<rect width="16" height="16" fill="white"/>
</clipPath>
</defs>
</svg>
