<svg width="16" height="16" viewBox="0 0 16 16" fill="none" xmlns="http://www.w3.org/2000/svg">
<rect width="16" height="16" rx="8" fill="black"/>
<rect width="16" height="16" rx="8" fill="#D3385A"/>
<path d="M8 7C7.45 7 7 7.45 7 8C7 8.55 7.45 9 8 9C8.55 9 9 8.55 9 8C9 7.45 8.55 7 8 7ZM11 8C11 6.35 9.65 5 8 5C6.35 5 5 6.35 5 8C5 9.1 5.6 10.05 6.5 10.6L7 9.75C6.4 9.4 6 8.75 6 8.05C6 6.95 6.9 6.05 8 6.05C9.1 6.05 10 6.95 10 8.05C10 8.8 9.6 9.45 9 9.75L9.5 10.6C10.4 10.1 11 9.1 11 8ZM8 3C5.25 3 3 5.25 3 8C3 9.85 4 11.45 5.5 12.3L6 11.45C4.8 10.75 4 9.45 4 8C4 5.8 5.8 4 8 4C10.2 4 12 5.8 12 8C12 9.5 11.2 10.75 10 11.45L10.5 12.3C12 11.45 13 9.85 13 8C13 5.25 10.75 3 8 3Z" fill="white"/>
</svg>
